<?xml version="1.0" encoding="UTF-8" standalone="no"?>
<svg
   viewBox="0 0 43.899958 40.479959"
   version="1.1"
   id="svg152"
   sodipodi:docname="icon_istem_small.svg"
   width="43.900002"
   height="40.48"
   inkscape:version="1.2.1 (9c6d41e410, 2022-07-14)"
   xmlns:inkscape="http://www.inkscape.org/namespaces/inkscape"
   xmlns:sodipodi="http://sodipodi.sourceforge.net/DTD/sodipodi-0.dtd"
   xmlns="http://www.w3.org/2000/svg"
   xmlns:svg="http://www.w3.org/2000/svg"
   xmlns:rdf="http://www.w3.org/1999/02/22-rdf-syntax-ns#"
   xmlns:cc="http://creativecommons.org/ns#"
   xmlns:dc="http://purl.org/dc/elements/1.1/">
  <sodipodi:namedview
     id="namedview154"
     pagecolor="#ffffff"
     bordercolor="#000000"
     borderopacity="0.25"
     inkscape:showpageshadow="2"
     inkscape:pageopacity="0.0"
     inkscape:pagecheckerboard="0"
     inkscape:deskcolor="#d1d1d1"
     showgrid="true"
     inkscape:zoom="9.2493497"
     inkscape:cx="59.409582"
     inkscape:cy="22.16372"
     inkscape:window-width="1920"
     inkscape:window-height="1017"
     inkscape:window-x="-8"
     inkscape:window-y="-8"
     inkscape:window-maximized="1"
     inkscape:current-layer="svg152">
    <inkscape:grid
       type="xygrid"
       id="grid314"
       originx="0"
       originy="0" />
  </sodipodi:namedview>
  <defs
     id="defs4">
    <style
       id="style2">.a{fill:#e36f1f;}</style>
  </defs>
  <title
     id="title6">site_logo_istem</title>
  <path
     class="a"
     d="m 24.677756,23.356151 v -6.260269 h -2.061012 v 6.504295 h 1.87552 a 1.164471,1.0605848 0 0 1 0.18548,-0.244026 z"
     id="path8"
     style="stroke-width:0.983465" />
  <polygon
     class="a"
     points="24.22,21.87 25.58,23.33 25.58,20.42 "
     id="polygon10"
     transform="matrix(1.0305053,0,0,0.93857063,0.16203295,-0.10811571)" />
  <path
     class="a"
     d="m 26.852122,17.095882 h -1.854907 l 2.061009,2.074243 v -1.92407 a 1.0305053,0.93857063 0 0 1 -0.206102,-0.150162 z"
     id="path12"
     style="stroke-width:0.983465" />
  <path
     class="a"
     d="m 27.068527,23.281065 v -1.755128 l -2.061012,2.07424 h 1.844607 a 1.1335558,1.0324277 0 0 1 0.216393,-0.319112 z"
     id="path14"
     style="stroke-width:0.983465" />
  <path
     class="a"
     d="m 20.112614,23.600177 a 1.0305053,0.93857063 0 0 1 0.298847,-0.225256 v -5.772209 l 1.514846,1.548641 V 17.227282 A 1.0305053,0.93857063 0 0 1 21.606849,17.07712 h -4.462087 a 1.0305053,0.93857063 0 0 1 -0.267932,0.225255 v 1.877141 l 1.514842,-1.548641 v 5.997469 z"
     id="path16"
     style="stroke-width:0.983465" />
  <rect
     class="a"
     x="33.210339"
     y="17.077114"
     width="1.9888749"
     height="6.5230651"
     id="rect18"
     style="stroke-width:0.983465" />
  <rect
     class="a"
     x="27.73835"
     y="17.077114"
     width="1.9888749"
     height="6.5230651"
     id="rect20"
     style="stroke-width:0.983465" />
  <polygon
     class="a"
     points="31.38,22.37 31.38,20.63 31.38,18.9 30.27,22 29.16,18.9 29.16,20.63 29.16,22.37 29.16,23.52 29.91,25.26 30.63,25.26 31.38,23.52 "
     id="polygon22"
     transform="matrix(1.0305053,0,0,0.93857063,0.16203295,-0.10811571)" />
  <path
     class="a"
     d="m 26.831511,28.546445 a 3.5140231,3.2005257 0 0 0 1.154164,2.38397 3.524328,3.2099117 0 0 1 4.977343,-4.5333 3.524328,3.2099117 0 0 0 -6.183035,2.158713 z"
     id="path24"
     style="stroke-width:0.983465" />
  <path
     class="a"
     d="m 22.029356,36.768325 a 6.8528601,6.2414944 0 0 1 -6.636456,-4.692856 6.6467587,6.0537807 0 0 0 13.272909,0 6.8528601,6.2414944 0 0 1 -6.636453,4.692856 z"
     id="path26"
     style="stroke-width:0.983465" />
  <path
     class="a"
     d="m 28.593675,32.319497 c 0,0 0.237009,-0.628841 -0.608,-1.389082 a 1.6178933,1.4735558 0 0 1 0.659524,1.295227 z"
     id="path28"
     style="stroke-width:0.983465" />
  <path
     class="a"
     d="m 34.5603,26.988416 c 0,0 -0.783184,0.30973 -1.586981,-0.600682 a 1.4117922,1.2858417 0 0 0 1.339661,0.647612 z"
     id="path30"
     style="stroke-width:0.983465" />
  <path
     class="a"
     d="m 17.216896,12.515659 a 3.5140231,3.2005257 0 0 0 -1.154166,-2.374583 3.524328,3.2099117 0 0 1 -4.977341,4.533295 3.524328,3.2099117 0 0 0 6.183033,-2.158712 z"
     id="path32"
     style="stroke-width:0.983465" />
  <path
     class="a"
     d="m 22.01905,4.2937807 a 6.8528601,6.2414944 0 0 1 6.636455,4.6928531 6.6467587,6.0537807 0 0 0 -13.272909,0 6.8528601,6.2414944 0 0 1 6.636454,-4.6928531 z"
     id="path34"
     style="stroke-width:0.983465" />
  <path
     class="a"
     d="m 15.454732,8.7426051 c 0,0 -0.237017,0.6288425 0.607998,1.3890849 A 1.6178933,1.4735558 0 0 1 15.403206,8.8364625 Z"
     id="path36"
     style="stroke-width:0.983465" />
  <path
     class="a"
     d="M 9.4365804,14.054915 A 1.8136892,1.6518843 0 0 1 11.054474,14.702529 1.7106389,1.5580272 0 0 0 9.580851,14.026758 Z"
     id="path38"
     style="stroke-width:0.983465" />
  <path
     class="a"
     d="M 39.321234,20.540439 A 7.1310966,6.4949087 0 0 1 34.508776,26.960258 6.9662155,6.3447371 0 0 0 40.35174,20.540439 6.9662155,6.3447371 0 0 0 34.446943,14.13 a 7.1310966,6.4949087 0 0 1 4.874291,6.410439 z"
     id="path40"
     style="stroke-width:0.983465" />
  <path
     class="a"
     d="m 30.139432,15.566013 a 3.0296855,2.7593975 0 0 1 -2.504126,-4.308038 2.926635,2.6655408 0 0 0 3.740733,4.06401 3.0090757,2.7406262 0 0 1 -1.236607,0.244028 z"
     id="path42"
     style="stroke-width:0.983465" />
  <path
     class="a"
     d="m 31.324512,15.359527 c 0,0 2.287723,-1.332769 3.472805,-1.079355 0.906841,0.187715 -0.08243,-0.08448 -0.08243,-0.08448 0,0 -0.917149,-0.366043 -3.390364,1.163826 z"
     id="path44"
     style="stroke-width:0.983465" />
  <path
     class="a"
     d="m 28.603978,8.7801482 c 0,0 0.443119,0.8447134 -1.030505,2.5059838 a 3.6067684,3.284997 0 0 0 1.030505,-2.4215128 z"
     id="path46"
     style="stroke-width:0.983465" />
  <path
     class="a"
     d="M 4.799307,20.44658 A 7.1310966,6.4949087 0 0 1 9.6117665,14.036143 6.9662155,6.3447371 0 0 0 3.7069712,20.44658 6.9662155,6.3447371 0 0 0 9.6117665,26.866403 7.1310966,6.4949087 0 0 1 4.799307,20.44658 Z"
     id="path48"
     style="stroke-width:0.983465" />
  <path
     class="a"
     d="m 13.960499,25.467933 a 3.0296855,2.7593975 0 0 1 2.504128,4.308039 2.926635,2.6655408 0 0 0 -3.740735,-4.06401 3.0090757,2.7406262 0 0 1 1.236607,-0.244029 z"
     id="path50"
     style="stroke-width:0.983465" />
  <path
     class="a"
     d="m 12.775418,25.674419 c 0,0 -2.308332,1.332772 -3.472804,1.079357 -0.9068446,-0.187724 0.082442,0.08447 0.082442,0.08447 0,0 0.917151,0.366045 3.390362,-1.163827 z"
     id="path52"
     style="stroke-width:0.983465" />
  <path
     class="a"
     d="m 15.495952,32.253798 c 0,0 -0.443118,-0.844715 1.030506,-2.505984 a 3.6067684,3.284997 0 0 0 -1.030506,2.421515 z"
     id="path54"
     style="stroke-width:0.983465" />
  <path
     class="a"
     d="m 22.029356,38.241879 a 7.2135371,6.5699943 0 0 1 -6.91469,-5.096438 7.0692662,6.4385943 0 0 0 6.91469,6.222723 7.0692662,6.4385943 0 0 0 6.914688,-6.222723 7.2135371,6.5699943 0 0 1 -6.914688,5.096438 z"
     id="path56"
     style="stroke-width:0.983465" />
  <path
     class="a"
     d="m 30.788651,15.059186 a 3.0915161,2.815712 0 0 1 -3.091516,-2.815713 3.0915161,2.815712 0 0 1 0.535864,-1.586184 2.9678552,2.7030833 0 0 0 -0.855322,1.877142 3.0193804,2.7500117 0 0 0 4.544528,2.374583 l 0.185481,-0.09387 a 3.0915161,2.815712 0 0 1 -1.319039,0.24403 z"
     id="path58"
     style="stroke-width:0.983465" />
  <path
     class="a"
     d="m 27.357069,28.865559 a 3.3697522,3.0691259 0 0 0 1.195383,2.346426 3.3800573,3.0785116 0 0 1 4.760938,-4.336195 3.3800573,3.0785116 0 0 0 -5.956321,1.989769 z"
     id="path60"
     style="stroke-width:0.983465" />
  <path
     class="a"
     d="m 28.923436,33.333157 a 3.1739563,2.8907976 0 0 0 -0.432811,-2.186873 c -0.721356,-0.722698 -0.133987,-0.121992 -0.133987,-0.121992 a 2.7205338,2.4778264 0 0 1 0.546165,2.383967 z"
     id="path62"
     style="stroke-width:0.983465" />
  <path
     class="a"
     d="m 40.918517,20.596752 c 0,3.435168 -2.555653,6.250882 -5.81205,6.569993 a 5.7708296,5.2559957 0 0 0 0.577085,0 c 3.524325,0 6.38913,-2.947111 6.38913,-6.569993 0,-3.622885 -2.854497,-6.569994 -6.38913,-6.569994 a 5.7089991,5.1996812 0 0 0 -0.577085,0 c 3.256397,0.319115 5.81205,3.134825 5.81205,6.569994 z"
     id="path64"
     style="stroke-width:0.983465" />
  <path
     class="a"
     d="m 33.138204,26.753776 c 0,0 0.133987,0.619454 2.061009,0.375425 l 1.030504,-0.0187 c 0,0 -2.452601,0.394201 -3.091513,-0.356659 z"
     id="path66"
     style="stroke-width:0.983465" />
  <path
     class="a"
     d="m 31.819158,14.909014 a 6.1005912,5.5563383 0 0 1 3.730427,-0.844713 l 0.577083,-0.06571 a 6.7188944,6.1194803 0 0 0 -4.30751,0.910415 z"
     id="path68"
     style="stroke-width:0.983465" />
  <path
     class="a"
     d="M 22.10149,2.7920675 A 7.2135371,6.5699943 0 0 1 29.016183,7.8791202 7.0692662,6.4385943 0 0 0 22.10149,1.6563971 7.0692662,6.4385943 0 0 0 15.1868,7.8791202 7.2135371,6.5699943 0 0 1 22.10149,2.7920675 Z"
     id="path70"
     style="stroke-width:0.983465" />
  <path
     class="a"
     d="m 13.342196,25.965377 a 3.0915161,2.815712 0 0 1 3.091516,2.815712 3.0915161,2.815712 0 0 1 -0.535864,1.586182 2.9678552,2.7030833 0 0 0 0.855322,-1.877141 3.0193804,2.7500117 0 0 0 -4.554836,-2.318268 l -0.133971,0.08446 a 3.0915161,2.815712 0 0 1 1.277826,-0.290953 z"
     id="path72"
     style="stroke-width:0.983465" />
  <path
     class="a"
     d="m 16.773781,12.168387 a 3.3697522,3.0691259 0 0 0 -1.154168,-2.3464256 3.3800573,3.0785116 0 0 1 -4.760935,4.3361966 3.3800573,3.0785116 0 0 0 5.95632,-1.989771 z"
     id="path74"
     style="stroke-width:0.983465" />
  <path
     class="a"
     d="m 15.20741,7.6914062 a 3.1739563,2.8907976 0 0 0 0.412203,2.1868695 c 0.721352,0.7226993 0.133955,0.1220133 0.133955,0.1220133 A 2.7205338,2.4778264 0 0 1 15.2074,7.6163196 Z"
     id="path76"
     style="stroke-width:0.983465" />
  <path
     class="a"
     d="m 3.2535491,20.42781 c 0,-3.435172 2.5556528,-6.241495 5.8120491,-6.569995 a 5.7708296,5.2559957 0 0 0 -0.5770821,0 c -3.5243286,0 -6.3891331,2.947111 -6.3891331,6.569995 0,3.622881 2.8648045,6.569992 6.3891331,6.569992 a 5.7089991,5.1996812 0 0 0 0.5770821,0 C 5.7679823,26.678691 3.2535491,23.862979 3.2535491,20.42781 Z"
     id="path78"
     style="stroke-width:0.983465" />
  <path
     class="a"
     d="m 10.951423,14.270786 c 0,0 -0.133971,-0.619456 -2.0610108,-0.375428 H 7.9526535 c 0,0 2.3907715,-0.375429 2.9987695,0.375428 z"
     id="path80"
     style="stroke-width:0.983465" />
  <path
     class="a"
     d="m 12.31169,26.08739 a 6.1005912,5.5563383 0 0 1 -3.7304288,0.844712 l -0.5770838,0.06569 A 6.7188944,6.1194803 0 0 0 12.31169,26.087378 Z"
     id="path82"
     style="stroke-width:0.983465" />
  <path
     class="a"
     d="M 28.140252,10.732375 A 4.6578836,4.2423391 0 0 0 28.93374,7.5693918 V 6.9780922 a 4.7300192,4.3080392 0 0 1 -0.793488,3.7542828 z"
     id="path84"
     style="stroke-width:0.983465" />
  <path
     class="a"
     d="m 15.990597,30.282801 a 4.6578836,4.2423391 0 0 0 -0.793493,3.16298 v 0.5913 a 4.7300192,4.3080392 0 0 1 0.793493,-3.75428 z"
     id="path86"
     style="stroke-width:0.983465" />
  <path
     class="a"
     d="m 22.029356,39.931304 a 7.9039757,7.1988366 0 0 1 -7.574213,-5.575108 7.7493998,7.0580511 0 0 0 7.574213,6.832795 7.7493998,7.0580511 0 0 0 7.574215,-6.82341 7.9039757,7.1988366 0 0 1 -7.574215,5.565723 z"
     id="path88"
     style="stroke-width:0.983465" />
  <path
     class="a"
     d="m 31.571835,14.533586 a 3.1739563,2.8907976 0 0 1 -3.184263,-2.881412 3.0915161,2.815712 0 0 1 0.556472,-1.623727 3.0915161,2.815712 0 0 0 -0.875927,1.942841 3.0915161,2.815712 0 0 0 4.668191,2.383969 l 0.144286,-0.08448 a 3.1842615,2.9001832 0 0 1 -1.30874,0.262799 z"
     id="path90"
     style="stroke-width:0.983465" />
  <path
     class="a"
     d="m 28.088727,29.409931 a 3.328532,3.0315831 0 0 0 1.133556,2.29011 3.3388373,3.0409688 0 0 1 -0.762574,-1.94284 3.256397,2.9658832 0 0 1 3.215177,-3.003425 3.1533462,2.8720261 0 0 1 2.06101,0.713315 3.1739563,2.8907976 0 0 0 -2.4423,-1.060589 3.256397,2.9658832 0 0 0 -3.204869,3.003429 z"
     id="path92"
     style="stroke-width:0.983465" />
  <path
     class="a"
     d="m 29.572654,34.553296 c 0,0 0.412205,-2.102399 -0.412202,-2.928342 -0.824404,-0.825938 0,0 0,0 0,0 0.793488,0.544375 0.329761,3.06913 z"
     id="path94"
     style="stroke-width:0.983465" />
  <path
     class="a"
     d="m 42.711597,20.606139 c 0,3.75428 -2.792669,6.842177 -6.358218,7.170677 a 6.3273023,5.7628237 0 0 0 0.638911,0 c 3.864398,0 6.99713,-3.228681 6.99713,-7.198836 0,-3.970152 -3.091512,-7.198836 -6.99713,-7.198836 a 6.2551671,5.6971236 0 0 0 -0.638911,0 c 3.565549,0.384814 6.358218,3.463324 6.358218,7.226995 z"
     id="path96"
     style="stroke-width:0.983465" />
  <path
     class="a"
     d="m 33.663759,27.382617 c 0,0 0.711051,0.638229 2.823588,0.375429 h 1.339658 c 0,0 -3.493419,0.450514 -4.163246,-0.375429 z"
     id="path98"
     style="stroke-width:0.983465" />
  <path
     class="a"
     d="m 32.705392,14.364644 a 6.9456055,6.3259659 0 0 1 4.122019,-0.872871 l 0.638916,-0.0657 a 7.2135371,6.5699943 0 0 0 -4.760935,0.938571 z"
     id="path100"
     style="stroke-width:0.983465" />
  <path
     class="a"
     d="M 28.78947,10.216161 A 5.6986941,5.1902955 0 0 0 29.593265,6.3492502 V 5.7016363 c 0,0 0.752267,2.7406263 -0.803795,4.5145247 z"
     id="path102"
     style="stroke-width:0.983465" />
  <path
     class="a"
     d="M 22.122103,1.1307975 A 7.9039757,7.1988366 0 0 1 29.696314,6.7059069 7.7493998,7.0580511 0 0 0 22.122103,-0.10811571 7.7493998,7.0580511 0 0 0 14.589107,6.7059069 7.9039757,7.1988366 0 0 1 22.122103,1.1307975 Z"
     id="path104"
     style="stroke-width:0.983465" />
  <path
     class="a"
     d="m 12.528096,26.528519 a 3.1739563,2.8907976 0 0 1 3.184261,2.881412 3.0915161,2.815712 0 0 1 -0.556473,1.623727 3.0915161,2.815712 0 0 0 0.87593,-1.942843 3.0915161,2.815712 0 0 0 -4.668188,-2.383968 l -0.14427,0.08445 a 3.1842615,2.9001832 0 0 1 1.308739,-0.262798 z"
     id="path106"
     style="stroke-width:0.983465" />
  <path
     class="a"
     d="m 16.052426,11.642789 a 3.328532,3.0315831 0 0 0 -1.133556,-2.2901128 3.3388373,3.0409688 0 0 1 0.762573,1.9428408 3.256397,2.9658832 0 0 1 -3.215176,3.003426 3.1533462,2.8720261 0 0 1 -2.061011,-0.713313 3.1739563,2.8907976 0 0 0 2.442297,1.060584 3.256397,2.9658832 0 0 0 3.204873,-3.003425 z"
     id="path108"
     style="stroke-width:0.983465" />
  <path
     class="a"
     d="m 14.589107,6.4618786 c 0,0 -0.412204,2.1023981 0.412201,2.9283402 0.824407,0.8259422 0,0 0,0 0,0 -0.793488,-0.544371 -0.32976,-3.0691259 z"
     id="path110"
     style="stroke-width:0.983465" />
  <path
     class="a"
     d="m 1.4295544,20.455966 c 0,-3.754284 2.7926694,-6.84218 6.3582172,-7.170679 a 6.2448618,5.687738 0 0 0 -0.6389134,0 c -3.8953091,-0.02816 -6.98682525,3.191139 -6.98682525,7.170679 0,3.979538 3.09151615,7.198836 6.99713095,7.198836 a 6.3273023,5.7628237 0 0 0 0.6389134,0 C 4.2325291,27.298146 1.4295544,24.210248 1.4295544,20.455966 Z"
     id="path112"
     style="stroke-width:0.983465" />
  <path
     class="a"
     d="m 10.467086,13.670101 c 0,0 -0.711049,-0.638228 -2.823585,-0.375429 H 6.3450645 c 0,0 3.462498,-0.441127 4.1220215,0.375429 z"
     id="path114"
     style="stroke-width:0.983465" />
  <path
     class="a"
     d="m 11.435761,26.697459 a 6.9456055,6.3259659 0 0 1 -4.1220208,0.872872 l -0.6389133,0.06568 a 7.2135371,6.5699943 0 0 0 4.7609341,-0.93857 z"
     id="path116"
     style="stroke-width:0.983465" />
  <path
     class="a"
     d="m 15.35168,30.864716 a 5.6986941,5.1902955 0 0 0 -0.762573,3.857526 v 0.647609 c 0,0 -0.79349,-2.759397 0.762573,-4.505135 z"
     id="path118"
     style="stroke-width:0.983465" />
  <path
     class="a"
     d="m 11.590336,17.508854 a 1.6281983,1.4829415 0 0 0 -0.195796,1.032429 3.9571403,3.6041111 0 0 0 0.257627,0.854099 3.1636511,2.8814119 0 0 0 0.453422,0.666385 l 2.061011,2.346425 a 2.2361965,2.0366983 0 0 1 0.267932,0.366043 0.94806485,0.86348496 0 0 1 0.09274,0.290958 0.5667779,0.51621384 0 0 1 0,0.19709 0.85531936,0.77901362 0 0 1 -0.113357,0.197111 h 0.175183 0.185493 a 1.2778265,1.1638276 0 0 0 0.927455,-0.572524 1.9579599,1.7832842 0 0 0 0.278236,-1.154444 2.741144,2.4965979 0 0 0 -0.17518,-0.703927 2.9163299,2.6561549 0 0 0 -0.453424,-0.657003 l -2.061004,-2.3652 a 2.3804671,2.168098 0 0 1 -0.257625,-0.34727 c 0,0 -0.278237,-0.469286 -0.412203,-0.525601 a 0.81409919,0.74147078 0 0 0 -1.030507,0.375429 z"
     id="path120"
     style="stroke-width:0.983465" />
  <polygon
     class="a"
     points="15.26,18.34 12.91,18.34 15.26,21.59 "
     id="polygon122"
     transform="matrix(1.0305053,0,0,0.93857063,0.16203295,-0.10811571)" />
  <path
     class="a"
     d="M 10.23007,17.105266 H 8.4060751 v 6.569997 H 10.467086 V 17.377455 A 1.0305053,0.93857063 0 0 1 10.23007,17.105266 Z"
     id="path124"
     style="stroke-width:0.983465" />
  <polygon
     class="a"
     points="13.58,25.28 11.12,21.92 11.12,25.28 "
     id="polygon126"
     transform="matrix(1.0305053,0,0,0.93857063,0.16203295,-0.10811571)" />
  <metadata
     id="metadata316">
    <rdf:RDF>
      <cc:Work
         rdf:about="">
        <dc:title>site_logo_istem</dc:title>
      </cc:Work>
    </rdf:RDF>
  </metadata>
</svg>
