<?xml version="1.0" encoding="UTF-8" standalone="no"?>
<svg
   viewBox="0 0 81.81999 21.98"
   version="1.1"
   id="svg152"
   sodipodi:docname="ISTEM text only.svg"
   width="81.82"
   height="21.98"
   inkscape:version="1.2.1 (9c6d41e410, 2022-07-14)"
   xmlns:inkscape="http://www.inkscape.org/namespaces/inkscape"
   xmlns:sodipodi="http://sodipodi.sourceforge.net/DTD/sodipodi-0.dtd"
   xmlns="http://www.w3.org/2000/svg"
   xmlns:svg="http://www.w3.org/2000/svg"
   xmlns:rdf="http://www.w3.org/1999/02/22-rdf-syntax-ns#"
   xmlns:cc="http://creativecommons.org/ns#"
   xmlns:dc="http://purl.org/dc/elements/1.1/">
  <sodipodi:namedview
     id="namedview154"
     pagecolor="#ffffff"
     bordercolor="#000000"
     borderopacity="0.25"
     inkscape:showpageshadow="2"
     inkscape:pageopacity="0.0"
     inkscape:pagecheckerboard="0"
     inkscape:deskcolor="#d1d1d1"
     showgrid="false"
     inkscape:zoom="9.2493497"
     inkscape:cx="70.275211"
     inkscape:cy="10.703455"
     inkscape:window-width="1920"
     inkscape:window-height="1017"
     inkscape:window-x="-8"
     inkscape:window-y="-8"
     inkscape:window-maximized="1"
     inkscape:current-layer="svg152" />
  <defs
     id="defs4">
    <style
       id="style2">.a{fill:#e36f1f;}</style>
  </defs>
  <title
     id="title6">site_logo_istem</title>
  <g
     id="g449"
     transform="translate(-24.999998,-11)">
    <path
       class="a"
       d="M 74.69,32.09 V 11 h -6.17 v 21.88 h 5.72 a 3.54,3.54 0 0 1 0.45,-0.79 z"
       id="path128" />
    <polygon
       class="a"
       points="104.33,17.63 100.03,22.21 104.33,26.79 "
       id="polygon130"
       transform="translate(-24)" />
    <path
       class="a"
       d="M 81.33,11 H 75.65 L 82,18 V 11.55 A 3.17,3.17 0 0 1 81.33,11 Z"
       id="path132" />
    <path
       class="a"
       d="m 82,31.8 v -5.88 l -6.34,7 h 5.65 A 3.45,3.45 0 0 1 82,31.8 Z"
       id="path134" />
    <path
       class="a"
       d="m 60.73,32.88 a 3.16,3.16 0 0 1 0.92,-0.76 V 12.76 L 66.27,18 v -6.51 a 3.22,3.22 0 0 1 -1,-0.49 h -13.6 a 3.2,3.2 0 0 1 -0.8,0.76 V 18 l 4.62,-5.2 v 20.08 z"
       id="path136" />
    <rect
       class="a"
       x="100.74"
       y="11"
       width="6.0799999"
       height="21.879999"
       id="rect138" />
    <rect
       class="a"
       x="84.019997"
       y="11"
       width="6.0799999"
       height="21.879999"
       id="rect140" />
    <polygon
       class="a"
       points="115.58,18.3 115.58,23.77 115.58,27.41 117.95,32.88 120.23,32.88 122.6,27.41 122.6,23.77 122.6,18.3 122.6,12.83 119.09,22.61 115.58,12.83 "
       id="polygon142"
       transform="translate(-24)" />
    <path
       class="a"
       d="m 34.69,12.45 a 5,5 0 0 0 -0.59,3.46 12.09,12.09 0 0 0 0.8,2.86 9.66,9.66 0 0 0 1.39,2.23 l 6.29,7.89 a 6.84,6.84 0 0 1 0.83,1.23 2.89,2.89 0 0 1 0.27,1 1.72,1.72 0 0 1 -0.07,0.67 2.62,2.62 0 0 1 -0.33,0.68 h 0.66 0.55 A 3.89,3.89 0 0 0 47.31,30.54 6,6 0 0 0 48.16,26.67 8.37,8.37 0 0 0 47.62,24.32 8.9,8.9 0 0 0 46.24,22 l -6.32,-7.9 a 7.28,7.28 0 0 1 -0.78,-1.15 c 0,0 -0.86,-1.59 -1.27,-1.77 a 2.5,2.5 0 0 0 -3.18,1.27 z"
       id="path144" />
    <polygon
       class="a"
       points="71.83,21.32 71.83,11.09 64.43,11.09 "
       id="polygon146"
       transform="translate(-24)" />
    <path
       class="a"
       d="m 30.52,11.09 h -5.7 V 33 h 6.55 V 12 a 3.24,3.24 0 0 1 -0.85,-0.91 z"
       id="path148" />
    <polygon
       class="a"
       points="58.79,32.94 66.54,32.94 58.79,22.37 "
       id="polygon150"
       transform="translate(-24)" />
  </g>
  <metadata
     id="metadata451">
    <rdf:RDF>
      <cc:Work
         rdf:about="">
        <dc:title>site_logo_istem</dc:title>
      </cc:Work>
    </rdf:RDF>
  </metadata>
</svg>
