<svg xmlns="http://www.w3.org/2000/svg" viewBox="0 0 130.82 43.98"><defs><style>.a{fill:#e36f1f;}</style></defs><title>site_logo_istem</title><path class="a" d="M23.79,25V18.33h-2v6.93h1.82A1.13,1.13,0,0,1,23.79,25Z"/><polygon class="a" points="24.22 21.87 25.58 23.33 25.58 20.42 24.22 21.87"/><path class="a" d="M25.9,18.33H24.1l2,2.21V18.49A1,1,0,0,1,25.9,18.33Z"/><path class="a" d="M26.11,24.92V23.05l-2,2.21h1.79A1.1,1.1,0,0,1,26.11,24.92Z"/><path class="a" d="M19.36,25.26a1,1,0,0,1,.29-.24V18.87l1.47,1.65V18.47a1,1,0,0,1-.31-.16H16.48a1,1,0,0,1-.26.24v2l1.47-1.65v6.39Z"/><rect class="a" x="32.07" y="18.31" width="1.93" height="6.95"/><rect class="a" x="26.76" y="18.31" width="1.93" height="6.95"/><polygon class="a" points="29.16 18.9 29.16 20.63 29.16 22.37 29.16 23.52 29.91 25.26 30.63 25.26 31.38 23.52 31.38 22.37 31.38 20.63 31.38 18.9 30.27 22 29.16 18.9"/><path class="a" d="M25.88,30.53A3.41,3.41,0,0,0,27,33.07a3.42,3.42,0,0,1,4.83-4.83,3.42,3.42,0,0,0-6,2.3Z"/><path class="a" d="M21.22,39.29a6.65,6.65,0,0,1-6.44-5,6.45,6.45,0,0,0,12.88,0A6.65,6.65,0,0,1,21.22,39.29Z"/><path class="a" d="M27.59,34.55s.23-.67-.59-1.48a1.57,1.57,0,0,1,.64,1.38Z"/><path class="a" d="M33.38,28.87s-.76.33-1.54-.64a1.37,1.37,0,0,0,1.3.69Z"/><path class="a" d="M16.55,13.45a3.41,3.41,0,0,0-1.12-2.53,3.42,3.42,0,0,1-4.83,4.83,3.42,3.42,0,0,0,6-2.3Z"/><path class="a" d="M21.21,4.69a6.65,6.65,0,0,1,6.44,5,6.45,6.45,0,0,0-12.88,0A6.65,6.65,0,0,1,21.21,4.69Z"/><path class="a" d="M14.84,9.43s-.23.67.59,1.48a1.57,1.57,0,0,1-.64-1.38Z"/><path class="a" d="M9,15.09a1.76,1.76,0,0,1,1.57.69,1.66,1.66,0,0,0-1.43-.72Z"/><path class="a" d="M38,22a6.92,6.92,0,0,1-4.67,6.84A6.76,6.76,0,0,0,39,22a6.76,6.76,0,0,0-5.73-6.83A6.92,6.92,0,0,1,38,22Z"/><path class="a" d="M29.09,16.7a2.94,2.94,0,0,1-2.43-4.59,2.84,2.84,0,0,0,3.63,4.33A2.92,2.92,0,0,1,29.09,16.7Z"/><path class="a" d="M30.24,16.48s2.22-1.42,3.37-1.15c.88.2-.08-.09-.08-.09S32.64,14.85,30.24,16.48Z"/><path class="a" d="M27.6,9.47s.43.9-1,2.67a3.5,3.5,0,0,0,1-2.58Z"/><path class="a" d="M4.5,21.9a6.92,6.92,0,0,1,4.67-6.83A6.76,6.76,0,0,0,3.44,21.9a6.76,6.76,0,0,0,5.73,6.84A6.92,6.92,0,0,1,4.5,21.9Z"/><path class="a" d="M13.39,27.25a2.94,2.94,0,0,1,2.43,4.59,2.84,2.84,0,0,0-3.63-4.33A2.92,2.92,0,0,1,13.39,27.25Z"/><path class="a" d="M12.24,27.47S10,28.89,8.87,28.62c-.88-.2.08.09.08.09S9.84,29.1,12.24,27.47Z"/><path class="a" d="M14.88,34.48s-.43-.9,1-2.67a3.5,3.5,0,0,0-1,2.58Z"/><path class="a" d="M21.22,40.86a7,7,0,0,1-6.71-5.43,6.86,6.86,0,0,0,6.71,6.63,6.86,6.86,0,0,0,6.71-6.63A7,7,0,0,1,21.22,40.86Z"/><path class="a" d="M29.72,16.16a3,3,0,0,1-3-3,3,3,0,0,1,.52-1.69,2.88,2.88,0,0,0-.83,2A2.93,2.93,0,0,0,30.82,16L31,15.9A3,3,0,0,1,29.72,16.16Z"/><path class="a" d="M26.39,30.87a3.27,3.27,0,0,0,1.16,2.5,3.28,3.28,0,0,1,4.62-4.62,3.28,3.28,0,0,0-5.78,2.12Z"/><path class="a" d="M27.91,35.63a3.08,3.08,0,0,0-.42-2.33c-.7-.77-.13-.13-.13-.13a2.64,2.64,0,0,1,.53,2.54Z"/><path class="a" d="M39.55,22.06c0,3.66-2.48,6.66-5.64,7a5.6,5.6,0,0,0,.56,0c3.42,0,6.2-3.14,6.2-7s-2.77-7-6.2-7a5.54,5.54,0,0,0-.56,0C37.07,15.4,39.55,18.4,39.55,22.06Z"/><path class="a" d="M32,28.62s.13.66,2,.4L35,29S32.62,29.42,32,28.62Z"/><path class="a" d="M30.72,16a5.92,5.92,0,0,1,3.62-.9l.56-.07A6.52,6.52,0,0,0,30.72,16Z"/><path class="a" d="M21.29,3.09A7,7,0,0,1,28,8.51a6.86,6.86,0,0,0-6.71-6.63,6.86,6.86,0,0,0-6.71,6.63A7,7,0,0,1,21.29,3.09Z"/><path class="a" d="M12.79,27.78a3,3,0,0,1,3,3,3,3,0,0,1-.52,1.69,2.88,2.88,0,0,0,.83-2A2.93,2.93,0,0,0,11.68,28l-.13.09A3,3,0,0,1,12.79,27.78Z"/><path class="a" d="M16.12,13.08A3.27,3.27,0,0,0,15,10.58a3.28,3.28,0,0,1-4.62,4.62,3.28,3.28,0,0,0,5.78-2.12Z"/><path class="a" d="M14.6,8.31A3.08,3.08,0,0,0,15,10.64c.7.77.13.13.13.13a2.64,2.64,0,0,1-.53-2.54Z"/><path class="a" d="M3,21.88c0-3.66,2.48-6.65,5.64-7a5.6,5.6,0,0,0-.56,0c-3.42,0-6.2,3.14-6.2,7s2.78,7,6.2,7a5.54,5.54,0,0,0,.56,0C5.44,28.54,3,25.54,3,21.88Z"/><path class="a" d="M10.47,15.32s-.13-.66-2-.4l-.91,0S9.88,14.52,10.47,15.32Z"/><path class="a" d="M11.79,27.91a5.92,5.92,0,0,1-3.62.9l-.56.07A6.52,6.52,0,0,0,11.79,27.91Z"/><path class="a" d="M27.15,11.55a4.52,4.52,0,0,0,.77-3.37l0-.63A4.59,4.59,0,0,1,27.15,11.55Z"/><path class="a" d="M15.36,32.38a4.52,4.52,0,0,0-.77,3.37l0,.63A4.59,4.59,0,0,1,15.36,32.38Z"/><path class="a" d="M21.22,42.66a7.67,7.67,0,0,1-7.35-5.94A7.52,7.52,0,0,0,21.22,44a7.52,7.52,0,0,0,7.35-7.27A7.67,7.67,0,0,1,21.22,42.66Z"/><path class="a" d="M30.48,15.6a3.08,3.08,0,0,1-3.09-3.07,3,3,0,0,1,.54-1.73,3,3,0,0,0-.85,2.07,3,3,0,0,0,4.53,2.54l.14-.09A3.09,3.09,0,0,1,30.48,15.6Z"/><path class="a" d="M27.1,31.45a3.23,3.23,0,0,0,1.1,2.44,3.24,3.24,0,0,1-.74-2.07,3.16,3.16,0,0,1,3.12-3.2,3.06,3.06,0,0,1,2,.76,3.08,3.08,0,0,0-2.37-1.13A3.16,3.16,0,0,0,27.1,31.45Z"/><path class="a" d="M28.54,36.93s.4-2.24-.4-3.12,0,0,0,0,.77.58.32,3.27Z"/><path class="a" d="M41.29,22.07c0,4-2.71,7.29-6.17,7.64a6.14,6.14,0,0,0,.62,0c3.75,0,6.79-3.44,6.79-7.67s-3-7.67-6.79-7.67a6.07,6.07,0,0,0-.62,0C38.58,14.78,41.29,18.06,41.29,22.07Z"/><path class="a" d="M32.51,29.29s.69.68,2.74.4h1.3S33.16,30.17,32.51,29.29Z"/><path class="a" d="M31.58,15.42a6.74,6.74,0,0,1,4-.93l.62-.07A7,7,0,0,0,31.58,15.42Z"/><path class="a" d="M27.78,11a5.53,5.53,0,0,0,.78-4.12l0-.69S29.29,9.11,27.78,11Z"/><path class="a" d="M21.31,1.32a7.67,7.67,0,0,1,7.35,5.94A7.52,7.52,0,0,0,21.31,0,7.52,7.52,0,0,0,14,7.26,7.67,7.67,0,0,1,21.31,1.32Z"/><path class="a" d="M12,28.38a3.08,3.08,0,0,1,3.09,3.07,3,3,0,0,1-.54,1.73,3,3,0,0,0,.85-2.07,3,3,0,0,0-4.53-2.54l-.14.09A3.09,3.09,0,0,1,12,28.38Z"/><path class="a" d="M15.42,12.52a3.23,3.23,0,0,0-1.1-2.44,3.24,3.24,0,0,1,.74,2.07,3.16,3.16,0,0,1-3.12,3.2,3.06,3.06,0,0,1-2-.76,3.08,3.08,0,0,0,2.37,1.13A3.16,3.16,0,0,0,15.42,12.52Z"/><path class="a" d="M14,7s-.4,2.24.4,3.12,0,0,0,0-.77-.58-.32-3.27Z"/><path class="a" d="M1.23,21.91c0-4,2.71-7.29,6.17-7.64a6.06,6.06,0,0,0-.62,0C3,14.24,0,17.67,0,21.91s3,7.67,6.79,7.67a6.14,6.14,0,0,0,.62,0C3.95,29.2,1.23,25.91,1.23,21.91Z"/><path class="a" d="M10,14.68s-.69-.68-2.74-.4H6S9.36,13.81,10,14.68Z"/><path class="a" d="M10.94,28.56a6.74,6.74,0,0,1-4,.93l-.62.07A7,7,0,0,0,10.94,28.56Z"/><path class="a" d="M14.74,33A5.53,5.53,0,0,0,14,37.11l0,.69S13.23,34.86,14.74,33Z"/><path class="a" d="M11.09,18.77a1.58,1.58,0,0,0-.19,1.1,3.84,3.84,0,0,0,.25.91,3.07,3.07,0,0,0,.44.71l2,2.5a2.17,2.17,0,0,1,.26.39.92.92,0,0,1,.09.31.55.55,0,0,1,0,.21.83.83,0,0,1-.11.21H14l.18,0a1.24,1.24,0,0,0,.9-.61,1.9,1.9,0,0,0,.27-1.23,2.66,2.66,0,0,0-.17-.75,2.83,2.83,0,0,0-.44-.7l-2-2.52a2.31,2.31,0,0,1-.25-.37s-.27-.5-.4-.56A.79.79,0,0,0,11.09,18.77Z"/><polygon class="a" points="15.26 18.34 12.91 18.34 15.26 21.59 15.26 18.34"/><path class="a" d="M9.77,18.34H8v7H10V18.63A1,1,0,0,1,9.77,18.34Z"/><polygon class="a" points="13.58 25.28 11.12 21.92 11.12 25.28 13.58 25.28"/><path class="a" d="M98.69,32.09V11H92.52V32.88h5.72A3.54,3.54,0,0,1,98.69,32.09Z"/><polygon class="a" points="100.03 22.21 104.33 26.79 104.33 17.63 100.03 22.21"/><path class="a" d="M105.33,11H99.65L106,18V11.55A3.17,3.17,0,0,1,105.33,11Z"/><path class="a" d="M106,31.8V25.92l-6.34,7h5.65A3.45,3.45,0,0,1,106,31.8Z"/><path class="a" d="M84.73,32.88a3.16,3.16,0,0,1,.92-.76V12.76L90.27,18V11.49a3.22,3.22,0,0,1-1-.49H75.67a3.2,3.2,0,0,1-.8.76V18l4.62-5.2V32.88Z"/><rect class="a" x="124.74" y="11" width="6.08" height="21.88"/><rect class="a" x="108.02" y="11" width="6.08" height="21.88"/><polygon class="a" points="115.58 12.83 115.58 18.3 115.58 23.77 115.58 27.41 117.95 32.88 120.23 32.88 122.6 27.41 122.6 23.77 122.6 18.3 122.6 12.83 119.09 22.61 115.58 12.83"/><path class="a" d="M58.69,12.45a5,5,0,0,0-.59,3.46,12.09,12.09,0,0,0,.8,2.86A9.66,9.66,0,0,0,60.29,21l6.29,7.89a6.84,6.84,0,0,1,.83,1.23,2.89,2.89,0,0,1,.27,1,1.72,1.72,0,0,1-.07.67,2.62,2.62,0,0,1-.33.68h.66l.55,0a3.89,3.89,0,0,0,2.82-1.93,6,6,0,0,0,.85-3.87,8.37,8.37,0,0,0-.54-2.35A8.9,8.9,0,0,0,70.24,22L63.92,14.1a7.28,7.28,0,0,1-.78-1.15s-.86-1.59-1.27-1.77A2.5,2.5,0,0,0,58.69,12.45Z"/><polygon class="a" points="71.83 11.09 64.43 11.09 71.83 21.32 71.83 11.09"/><path class="a" d="M54.52,11.09h-5.7V33h6.55V12A3.24,3.24,0,0,1,54.52,11.09Z"/><polygon class="a" points="66.54 32.94 58.79 22.37 58.79 32.94 66.54 32.94"/></svg>