<?xml version="1.0" encoding="UTF-8" standalone="no"?>
<svg
   viewBox="0 0 39.41998 39.66"
   version="1.1"
   id="svg36"
   sodipodi:docname="Toray_T_only.svg"
   width="39.419998"
   height="39.66"
   inkscape:version="1.2.1 (9c6d41e410, 2022-07-14)"
   xmlns:inkscape="http://www.inkscape.org/namespaces/inkscape"
   xmlns:sodipodi="http://sodipodi.sourceforge.net/DTD/sodipodi-0.dtd"
   xmlns="http://www.w3.org/2000/svg"
   xmlns:svg="http://www.w3.org/2000/svg"
   xmlns:rdf="http://www.w3.org/1999/02/22-rdf-syntax-ns#"
   xmlns:cc="http://creativecommons.org/ns#"
   xmlns:dc="http://purl.org/dc/elements/1.1/">
  <sodipodi:namedview
     id="namedview38"
     pagecolor="#ffffff"
     bordercolor="#000000"
     borderopacity="0.25"
     inkscape:showpageshadow="2"
     inkscape:pageopacity="0.0"
     inkscape:pagecheckerboard="0"
     inkscape:deskcolor="#d1d1d1"
     showgrid="false"
     inkscape:zoom="4.4092994"
     inkscape:cx="137.21001"
     inkscape:cy="19.957819"
     inkscape:window-width="1920"
     inkscape:window-height="1017"
     inkscape:window-x="-8"
     inkscape:window-y="-8"
     inkscape:window-maximized="1"
     inkscape:current-layer="svg36" />
  <defs
     id="defs4">
    <style
       id="style2">.cls-1{fill:#004098;}.cls-2{fill:#fff;}.cls-3{fill:#231815;}</style>
  </defs>
  <title
     id="title6">アセット 4</title>
  <path
     class="cls-1"
     d="M 39.65,38 A 1.68,1.68 0 0 1 38,39.65 H 1.67 A 1.68,1.68 0 0 1 0,38 V 1.67 A 1.67,1.67 0 0 1 1.67,0 H 38 a 1.68,1.68 0 0 1 1.67,1.67 V 38"
     id="path8"
     style="fill:#000000;fill-opacity:0" />
  <g
     id="g294"
     transform="matrix(1,0,0,1.3105263,0,-5.1831053)">
    <polyline
       class="cls-2"
       points="10.06 3.81 0.89 16.36 9.14 16.36 18.15 3.81 10.06 3.81"
       id="polyline10"
       style="fill:#004098;fill-opacity:1" />
    <polyline
       class="cls-2"
       points="16.41 9.83 16.41 16.36 23.69 16.36 23.69 34.21 30.97 34.21 30.97 16.36 37.84 16.36 37.84 9.83 16.41 9.83"
       id="polyline12"
       style="fill:#004098;fill-opacity:1" />
  </g>
  <metadata
     id="metadata624">
    <rdf:RDF>
      <cc:Work
         rdf:about="">
        <dc:title>アセット 4</dc:title>
      </cc:Work>
    </rdf:RDF>
  </metadata>
</svg>
