<?xml version="1.0" encoding="UTF-8" standalone="no"?>
<svg
   viewBox="0 0 168.99998 82.99999"
   version="1.1"
   id="svg152"
   sodipodi:docname="WV MAINTENANCE.svg"
   inkscape:version="1.2.1 (9c6d41e410, 2022-07-14)"
   width="169"
   height="83"
   inkscape:export-filename="ISM MOBILE_16x16.png"
   inkscape:export-xdpi="34.909092"
   inkscape:export-ydpi="34.909092"
   xml:space="preserve"
   xmlns:inkscape="http://www.inkscape.org/namespaces/inkscape"
   xmlns:sodipodi="http://sodipodi.sourceforge.net/DTD/sodipodi-0.dtd"
   xmlns="http://www.w3.org/2000/svg"
   xmlns:svg="http://www.w3.org/2000/svg"
   xmlns:rdf="http://www.w3.org/1999/02/22-rdf-syntax-ns#"
   xmlns:cc="http://creativecommons.org/ns#"
   xmlns:dc="http://purl.org/dc/elements/1.1/"><sodipodi:namedview
     id="namedview154"
     pagecolor="#ffffff"
     bordercolor="#000000"
     borderopacity="0.25"
     inkscape:showpageshadow="2"
     inkscape:pageopacity="0.0"
     inkscape:pagecheckerboard="0"
     inkscape:deskcolor="#d1d1d1"
     showgrid="false"
     inkscape:zoom="2.3123374"
     inkscape:cx="-3.8921656"
     inkscape:cy="126.27915"
     inkscape:window-width="1920"
     inkscape:window-height="1017"
     inkscape:window-x="-8"
     inkscape:window-y="-8"
     inkscape:window-maximized="1"
     inkscape:current-layer="svg152" /><defs
     id="defs4"><linearGradient
       id="linearGradient6715"
       inkscape:swatch="solid"><stop
         style="stop-color:#bfbfbf;stop-opacity:1;"
         offset="0"
         id="stop6713" /></linearGradient><linearGradient
       id="linearGradient6709"
       inkscape:swatch="solid"><stop
         style="stop-color:#000000;stop-opacity:1;"
         offset="0"
         id="stop6707" /></linearGradient><rect
       x="61.842186"
       y="93.411972"
       width="85.396027"
       height="19.028364"
       id="rect455" /><style
       id="style2">.a{fill:#e36f1f;}</style><filter
       inkscape:collect="always"
       style="color-interpolation-filters:sRGB"
       id="filter4708"
       x="-0.00031123586"
       y="-0.00077353178"
       width="1.0006225"
       height="1.0015471"><feGaussianBlur
         inkscape:collect="always"
         stdDeviation="0.0072351395"
         id="feGaussianBlur4710" /></filter></defs><title
     id="title6">site_logo_istem</title><metadata
     id="metadata1821"><rdf:RDF><cc:Work
         rdf:about=""><dc:title>site_logo_istem</dc:title></cc:Work></rdf:RDF></metadata><text
     xml:space="preserve"
     style="font-style:normal;font-variant:normal;font-weight:bold;font-stretch:normal;font-size:32.0598px;font-family:'Segoe UI';-inkscape-font-specification:'Segoe UI Bold';fill:#fa7e00;fill-opacity:0.85714287;stroke:#000000;stroke-width:0;stroke-dasharray:none;stroke-opacity:1;filter:url(#filter4708);opacity:1"
     x="35.822414"
     y="36.399029"
     id="text491"
     transform="matrix(0.86796029,0,0,1.4162401,-16.519308,-6.1538)"><tspan
       sodipodi:role="line"
       id="tspan489"
       x="35.822414"
       y="36.399029"
       style="font-style:normal;font-variant:normal;font-weight:900;font-stretch:normal;font-size:32.0598px;font-family:'Segoe UI';-inkscape-font-specification:'Segoe UI Heavy';fill:#fa7e00;fill-opacity:0.85714287;stroke:#000000;stroke-width:0;stroke-dasharray:none;stroke-opacity:1">WV</tspan></text><text
     xml:space="preserve"
     id="text453"
     style="font-style:normal;font-variant:normal;font-weight:bold;font-stretch:normal;font-size:9.36068px;font-family:Arial;-inkscape-font-specification:'Arial Bold';white-space:pre;shape-inside:url(#rect455);display:inline;fill:#3d3d3d;fill-opacity:1;stroke-width:0.245"
     transform="matrix(1.554007,0,0,2.6362116,-31.754221,-223.49658)"><tspan
       x="61.841797"
       y="101.84378"
       id="tspan6742"><tspan
         style="font-family:'Segoe UI';-inkscape-font-specification:'Segoe UI Bold'"
         id="tspan6740">Maintenance</tspan></tspan></text><rect
     style="fill:#3d3d3d;fill-opacity:1;stroke:#000000;stroke-width:0;stroke-dasharray:none;stroke-opacity:1;opacity:0.7"
     id="rect12711"
     width="86.881615"
     height="4.8242049"
     x="65.513222"
     y="49.395966" /><rect
     style="fill:#3d3d3d;fill-opacity:1;stroke:#000000;stroke-width:0;stroke-dasharray:none;stroke-opacity:1;opacity:0.7"
     id="rect12711-9"
     width="134.38068"
     height="4.8242049"
     x="18.01417"
     y="57.32225" /><ellipse
     style="opacity:0;fill:#3d3d3d;fill-opacity:1;stroke:#000000;stroke-width:0;stroke-dasharray:none;stroke-opacity:1"
     id="path14310"
     cx="-176.01237"
     cy="39.73951"
     rx="42.81382"
     ry="27.724693" /><path
     style="opacity:0.74;mix-blend-mode:multiply;fill:#387adf;fill-opacity:1;stroke:#000000;stroke-width:0;stroke-dasharray:none;stroke-opacity:1"
     id="path14617"
     sodipodi:type="arc"
     sodipodi:cx="41.874832"
     sodipodi:cy="62.14642"
     sodipodi:rx="13.250408"
     sodipodi:ry="13.288994"
     sodipodi:start="3.1032303"
     sodipodi:end="3.0887486"
     sodipodi:arc-type="slice"
     d="M 28.634173,62.656092 A 13.250408,13.288994 0 0 1 41.318707,48.869135 13.250408,13.288994 0 0 1 55.111465,61.540609 13.250408,13.288994 0 0 1 42.526802,75.419317 13.250408,13.288994 0 0 1 28.642921,62.848337 L 41.874832,62.14642 Z" /><path
     style="opacity:0.51;mix-blend-mode:multiply;fill:#50c4ed;fill-opacity:1;stroke:#000000;stroke-width:0;stroke-dasharray:none;stroke-opacity:1"
     id="path14617-5"
     sodipodi:type="arc"
     sodipodi:cx="69.608467"
     sodipodi:cy="26.778841"
     sodipodi:rx="7.4121523"
     sodipodi:ry="7.7019987"
     sodipodi:start="3.1032303"
     sodipodi:end="3.0887486"
     sodipodi:arc-type="slice"
     d="m 62.201768,27.074235 a 7.4121523,7.7019987 0 0 1 7.095608,-7.990606 7.4121523,7.7019987 0 0 1 7.715537,7.344098 7.4121523,7.7019987 0 0 1 -7.03974,8.043784 7.4121523,7.7019987 0 0 1 -7.766511,-7.285855 l 7.401805,-0.406815 z" /><path
     style="opacity:0.5;mix-blend-mode:multiply;fill:#fba834;fill-opacity:1;stroke:#000000;stroke-width:0;stroke-dasharray:none;stroke-opacity:1"
     id="path14617-5-0"
     sodipodi:type="arc"
     sodipodi:cx="85.204514"
     sodipodi:cy="57.32225"
     sodipodi:rx="7.4121523"
     sodipodi:ry="7.7019987"
     sodipodi:start="3.1032303"
     sodipodi:end="3.0887486"
     sodipodi:arc-type="slice"
     d="m 77.797815,57.617645 a 7.4121523,7.7019987 0 0 1 7.095607,-7.990607 7.4121523,7.7019987 0 0 1 7.715538,7.344098 7.4121523,7.7019987 0 0 1 -7.039741,8.043784 7.4121523,7.7019987 0 0 1 -7.766511,-7.285854 l 7.401806,-0.406816 z" /><path
     style="opacity:0.4;mix-blend-mode:multiply;fill:#3d3d3d;fill-opacity:1;stroke:#000000;stroke-width:0;stroke-dasharray:none;stroke-opacity:1"
     id="path14617-5-0-2"
     sodipodi:type="arc"
     sodipodi:cx="134.27481"
     sodipodi:cy="39.884323"
     sodipodi:rx="5.7501717"
     sodipodi:ry="5.4019685"
     sodipodi:start="3.1032303"
     sodipodi:end="3.0887486"
     sodipodi:arc-type="slice"
     d="m 128.52887,40.091505 a 5.7501717,5.4019685 0 0 1 5.5046,-5.60439 5.7501717,5.4019685 0 0 1 5.98553,5.150946 5.7501717,5.4019685 0 0 1 -5.46126,5.641688 5.7501717,5.4019685 0 0 1 -6.02507,-5.110097 l 5.74214,-0.285329 z" /><path
     style="opacity:0.5;mix-blend-mode:multiply;fill:#333a73;fill-opacity:1;stroke:#000000;stroke-width:0;stroke-dasharray:none;stroke-opacity:1"
     id="path14617-5-0-2-3"
     sodipodi:type="arc"
     sodipodi:cx="92.606422"
     sodipodi:cy="36.097912"
     sodipodi:rx="5.7501717"
     sodipodi:ry="5.4019685"
     sodipodi:start="3.1032303"
     sodipodi:end="3.0887486"
     sodipodi:arc-type="slice"
     d="m 86.860481,36.305093 a 5.7501717,5.4019685 0 0 1 5.504604,-5.60439 5.7501717,5.4019685 0 0 1 5.985531,5.150947 5.7501717,5.4019685 0 0 1 -5.461264,5.641687 5.7501717,5.4019685 0 0 1 -6.025074,-5.110096 l 5.742144,-0.285329 z" /><path
     style="opacity:0.5;mix-blend-mode:multiply;fill:#fba834;fill-opacity:1;stroke:#000000;stroke-width:0;stroke-dasharray:none;stroke-opacity:1"
     id="path14617-5-2"
     sodipodi:type="arc"
     sodipodi:cx="117.11655"
     sodipodi:cy="26.778847"
     sodipodi:rx="5.6822982"
     sodipodi:ry="5.5178218"
     sodipodi:start="3.1032303"
     sodipodi:end="3.0887486"
     sodipodi:arc-type="slice"
     d="m 111.43843,26.990471 a 5.6822982,5.5178218 0 0 1 5.43963,-5.724584 5.6822982,5.5178218 0 0 1 5.91488,5.261417 5.6822982,5.5178218 0 0 1 -5.3968,5.762681 5.6822982,5.5178218 0 0 1 -5.95396,-5.21969 l 5.67437,-0.291448 z" /></svg>
