<?xml version="1.0" encoding="UTF-8" standalone="no"?>
<svg
   viewBox="0 0 168.99998 82.99999"
   version="1.1"
   id="svg152"
   sodipodi:docname="WV MAINTENANCE.svg"
   inkscape:version="1.2.1 (9c6d41e410, 2022-07-14)"
   width="169"
   height="83"
   inkscape:export-filename="ISM MOBILE_16x16.png"
   inkscape:export-xdpi="34.909092"
   inkscape:export-ydpi="34.909092"
   xml:space="preserve"
   xmlns:inkscape="http://www.inkscape.org/namespaces/inkscape"
   xmlns:sodipodi="http://sodipodi.sourceforge.net/DTD/sodipodi-0.dtd"
   xmlns="http://www.w3.org/2000/svg"
   xmlns:svg="http://www.w3.org/2000/svg"
   xmlns:rdf="http://www.w3.org/1999/02/22-rdf-syntax-ns#"
   xmlns:cc="http://creativecommons.org/ns#"
   xmlns:dc="http://purl.org/dc/elements/1.1/"><sodipodi:namedview
     id="namedview154"
     pagecolor="#ffffff"
     bordercolor="#000000"
     borderopacity="0.25"
     inkscape:showpageshadow="2"
     inkscape:pageopacity="0.0"
     inkscape:pagecheckerboard="0"
     inkscape:deskcolor="#d1d1d1"
     showgrid="false"
     inkscape:zoom="2.3123374"
     inkscape:cx="-31.137325"
     inkscape:cy="126.27915"
     inkscape:window-width="1920"
     inkscape:window-height="1017"
     inkscape:window-x="-8"
     inkscape:window-y="-8"
     inkscape:window-maximized="1"
     inkscape:current-layer="svg152" /><defs
     id="defs4"><linearGradient
       id="linearGradient6715"
       inkscape:swatch="solid"><stop
         style="stop-color:#bfbfbf;stop-opacity:1;"
         offset="0"
         id="stop6713" /></linearGradient><linearGradient
       id="linearGradient6709"
       inkscape:swatch="solid"><stop
         style="stop-color:#000000;stop-opacity:1;"
         offset="0"
         id="stop6707" /></linearGradient><rect
       x="61.842186"
       y="93.411972"
       width="85.396027"
       height="19.028364"
       id="rect455" /><style
       id="style2">.a{fill:#e36f1f;}</style><filter
       inkscape:collect="always"
       style="color-interpolation-filters:sRGB"
       id="filter4708"
       x="-0.00031123586"
       y="-0.00077353178"
       width="1.0006225"
       height="1.0015471"><feGaussianBlur
         inkscape:collect="always"
         stdDeviation="0.0072351395"
         id="feGaussianBlur4710" /></filter></defs><title
     id="title6">site_logo_istem</title><metadata
     id="metadata1821"><rdf:RDF><cc:Work
         rdf:about=""><dc:title>site_logo_istem</dc:title></cc:Work></rdf:RDF></metadata><text
     xml:space="preserve"
     style="font-style:normal;font-variant:normal;font-weight:bold;font-stretch:normal;font-size:32.0598px;font-family:'Segoe UI';-inkscape-font-specification:'Segoe UI Bold';opacity:1;fill:#fa7e00;fill-opacity:0.857143;stroke:#000000;stroke-width:0;stroke-dasharray:none;stroke-opacity:1;filter:url(#filter4708)"
     x="35.822414"
     y="36.399029"
     id="text491"
     transform="matrix(1.0662977,0,0,2.0802082,-38.512684,-23.15288)"><tspan
       sodipodi:role="line"
       id="tspan489"
       x="35.822414"
       y="36.399029"
       style="font-style:normal;font-variant:normal;font-weight:900;font-stretch:normal;font-size:32.0598px;font-family:'Segoe UI';-inkscape-font-specification:'Segoe UI Heavy';fill:#fa7e00;fill-opacity:0.857143;stroke:#000000;stroke-width:0;stroke-dasharray:none;stroke-opacity:1">WV</tspan></text><text
     xml:space="preserve"
     id="text453"
     style="font-style:normal;font-variant:normal;font-weight:bold;font-stretch:normal;font-size:9.36068px;font-family:Arial;-inkscape-font-specification:'Arial Bold';white-space:pre;shape-inside:url(#rect455);display:inline;fill:#3d3d3d;fill-opacity:1;stroke-width:0.182386"
     transform="matrix(1.9091129,0,0,3.8721324,-57.228924,-342.3913)"><tspan
       x="61.841797"
       y="101.84378"
       id="tspan368"><tspan
         style="font-family:'Segoe UI';-inkscape-font-specification:'Segoe UI Bold'"
         id="tspan366">Maintenance</tspan></tspan></text><rect
     style="opacity:0.7;fill:#3d3d3d;fill-opacity:1;stroke:#000000;stroke-width:0;stroke-dasharray:none;stroke-opacity:1"
     id="rect12711"
     width="106.73491"
     height="7.0859108"
     x="62.265079"
     y="58.43998" /><rect
     style="opacity:0.7;fill:#3d3d3d;fill-opacity:1;stroke:#000000;stroke-width:0;stroke-dasharray:none;stroke-opacity:1"
     id="rect12711-9"
     width="165.08797"
     height="7.0859108"
     x="3.9120297"
     y="70.082298" /><path
     style="opacity:0.74;mix-blend-mode:multiply;fill:#387adf;fill-opacity:1;stroke:#000000;stroke-width:0;stroke-dasharray:none;stroke-opacity:1"
     id="path14617"
     sodipodi:type="arc"
     sodipodi:cx="33.655853"
     sodipodi:cy="70.082268"
     sodipodi:rx="13.034778"
     sodipodi:ry="10.846419"
     sodipodi:start="3.1032303"
     sodipodi:end="3.0887486"
     sodipodi:arc-type="slice"
     d="M 20.630666,70.49826 A 13.034778,10.846419 0 0 1 33.108778,59.245406 13.034778,10.846419 0 0 1 46.677079,69.587808 13.034778,10.846419 0 0 1 34.297213,80.915549 13.034778,10.846419 0 0 1 20.639271,70.65517 l 13.016582,-0.572902 z" /><path
     style="opacity:0.51;mix-blend-mode:multiply;fill:#50c4ed;fill-opacity:1;stroke:#000000;stroke-width:0;stroke-dasharray:none;stroke-opacity:1"
     id="path14617-5"
     sodipodi:type="arc"
     sodipodi:cx="67.29612"
     sodipodi:cy="17.711226"
     sodipodi:rx="9.1059008"
     sodipodi:ry="10.334699"
     sodipodi:start="3.1032303"
     sodipodi:end="3.0887486"
     sodipodi:arc-type="slice"
     d="m 58.196919,18.107592 a 9.1059008,10.334699 0 0 1 8.717022,-10.7219588 9.1059008,10.334699 0 0 1 9.478613,9.8544598 9.1059008,10.334699 0 0 1 -8.64839,10.793313 9.1059008,10.334699 0 0 1 -9.541234,-9.776307 l 9.09319,-0.545873 z" /><path
     style="opacity:0.5;mix-blend-mode:multiply;fill:#fba834;fill-opacity:1;stroke:#000000;stroke-width:0;stroke-dasharray:none;stroke-opacity:1"
     id="path14617-5-0"
     sodipodi:type="arc"
     sodipodi:cx="86.456017"
     sodipodi:cy="58.694992"
     sodipodi:rx="9.1059008"
     sodipodi:ry="10.334699"
     sodipodi:start="3.1032303"
     sodipodi:end="3.0887486"
     sodipodi:arc-type="slice"
     d="M 77.356815,59.091358 A 9.1059008,10.334699 0 0 1 86.073838,48.3694 9.1059008,10.334699 0 0 1 95.55245,58.22386 9.1059008,10.334699 0 0 1 86.904061,69.017173 9.1059008,10.334699 0 0 1 77.362827,59.240865 l 9.09319,-0.545873 z" /><path
     style="opacity:0.4;mix-blend-mode:multiply;fill:#3d3d3d;fill-opacity:1;stroke:#000000;stroke-width:0;stroke-dasharray:none;stroke-opacity:1"
     id="path14617-5-0-2"
     sodipodi:type="arc"
     sodipodi:cx="146.73936"
     sodipodi:cy="35.296425"
     sodipodi:rx="7.0641413"
     sodipodi:ry="7.2484708"
     sodipodi:start="3.1032303"
     sodipodi:end="3.0887486"
     sodipodi:arc-type="slice"
     d="m 139.68042,35.574425 a 7.0641413,7.2484708 0 0 1 6.76246,-7.520084 7.0641413,7.2484708 0 0 1 7.35328,6.911645 7.0641413,7.2484708 0 0 1 -6.70921,7.57013 7.0641413,7.2484708 0 0 1 -7.40187,-6.856831 l 7.05428,-0.38286 z" /><path
     style="opacity:0.5;mix-blend-mode:multiply;fill:#333a73;fill-opacity:1;stroke:#000000;stroke-width:0;stroke-dasharray:none;stroke-opacity:1"
     id="path14617-5-0-2-3"
     sodipodi:type="arc"
     sodipodi:cx="95.549332"
     sodipodi:cy="30.215744"
     sodipodi:rx="7.0641413"
     sodipodi:ry="7.2484708"
     sodipodi:start="3.1032303"
     sodipodi:end="3.0887486"
     sodipodi:arc-type="slice"
     d="m 88.490388,30.493744 a 7.0641413,7.2484708 0 0 1 6.762458,-7.520084 7.0641413,7.2484708 0 0 1 7.353284,6.911645 7.0641413,7.2484708 0 0 1 -6.709216,7.57013 7.0641413,7.2484708 0 0 1 -7.401863,-6.856831 l 7.054281,-0.38286 z" /><path
     style="opacity:0.5;mix-blend-mode:multiply;fill:#fba834;fill-opacity:1;stroke:#000000;stroke-width:0;stroke-dasharray:none;stroke-opacity:1"
     id="path14617-5-2"
     sodipodi:type="arc"
     sodipodi:cx="125.66027"
     sodipodi:cy="17.711231"
     sodipodi:rx="6.9807582"
     sodipodi:ry="7.4039259"
     sodipodi:start="3.1032303"
     sodipodi:end="3.0887486"
     sodipodi:arc-type="slice"
     d="m 118.68465,17.995194 a 6.9807582,7.4039259 0 0 1 6.68264,-7.681365 6.9807582,7.4039259 0 0 1 7.26648,7.059877 6.9807582,7.4039259 0 0 1 -6.63002,7.732483 6.9807582,7.4039259 0 0 1 -7.31449,-7.003886 l 6.97101,-0.391072 z" /></svg>
