<?xml version="1.0" encoding="UTF-8" standalone="no"?>
<svg
   viewBox="0 0 42.599989 43.98"
   version="1.1"
   id="svg152"
   sodipodi:docname="login_istem.svg"
   width="42.599998"
   height="43.98"
   inkscape:version="1.2.1 (9c6d41e410, 2022-07-14)"
   xmlns:inkscape="http://www.inkscape.org/namespaces/inkscape"
   xmlns:sodipodi="http://sodipodi.sourceforge.net/DTD/sodipodi-0.dtd"
   xmlns="http://www.w3.org/2000/svg"
   xmlns:svg="http://www.w3.org/2000/svg"
   xmlns:rdf="http://www.w3.org/1999/02/22-rdf-syntax-ns#"
   xmlns:cc="http://creativecommons.org/ns#"
   xmlns:dc="http://purl.org/dc/elements/1.1/">
  <sodipodi:namedview
     id="namedview154"
     pagecolor="#ffffff"
     bordercolor="#000000"
     borderopacity="0.25"
     inkscape:showpageshadow="2"
     inkscape:pageopacity="0.0"
     inkscape:pagecheckerboard="0"
     inkscape:deskcolor="#d1d1d1"
     showgrid="false"
     inkscape:zoom="9.2493497"
     inkscape:cx="64.166673"
     inkscape:cy="21.947489"
     inkscape:window-width="1920"
     inkscape:window-height="1017"
     inkscape:window-x="-8"
     inkscape:window-y="-8"
     inkscape:window-maximized="1"
     inkscape:current-layer="svg152" />
  <defs
     id="defs4">
    <style
       id="style2">.a{fill:#e36f1f;}</style>
  </defs>
  <title
     id="title6">site_logo_istem</title>
  <path
     class="a"
     d="m 23.79,25 v -6.67 h -2 v 6.93 h 1.82 A 1.13,1.13 0 0 1 23.79,25 Z"
     id="path8" />
  <polygon
     class="a"
     points="24.22,21.87 25.58,23.33 25.58,20.42 "
     id="polygon10" />
  <path
     class="a"
     d="m 25.9,18.33 h -1.8 l 2,2.21 v -2.05 a 1,1 0 0 1 -0.2,-0.16 z"
     id="path12" />
  <path
     class="a"
     d="m 26.11,24.92 v -1.87 l -2,2.21 h 1.79 a 1.1,1.1 0 0 1 0.21,-0.34 z"
     id="path14" />
  <path
     class="a"
     d="m 19.36,25.26 a 1,1 0 0 1 0.29,-0.24 v -6.15 l 1.47,1.65 v -2.05 a 1,1 0 0 1 -0.31,-0.16 h -4.33 a 1,1 0 0 1 -0.26,0.24 v 2 l 1.47,-1.65 v 6.39 z"
     id="path16" />
  <rect
     class="a"
     x="32.07"
     y="18.309999"
     width="1.9299999"
     height="6.9499998"
     id="rect18" />
  <rect
     class="a"
     x="26.76"
     y="18.309999"
     width="1.9299999"
     height="6.9499998"
     id="rect20" />
  <polygon
     class="a"
     points="29.16,22.37 29.16,23.52 29.91,25.26 30.63,25.26 31.38,23.52 31.38,22.37 31.38,20.63 31.38,18.9 30.27,22 29.16,18.9 29.16,20.63 "
     id="polygon22" />
  <path
     class="a"
     d="m 25.88,30.53 a 3.41,3.41 0 0 0 1.12,2.54 3.42,3.42 0 0 1 4.83,-4.83 3.42,3.42 0 0 0 -6,2.3 z"
     id="path24" />
  <path
     class="a"
     d="m 21.22,39.29 a 6.65,6.65 0 0 1 -6.44,-5 6.45,6.45 0 0 0 12.88,0 6.65,6.65 0 0 1 -6.44,5 z"
     id="path26" />
  <path
     class="a"
     d="m 27.59,34.55 c 0,0 0.23,-0.67 -0.59,-1.48 a 1.57,1.57 0 0 1 0.64,1.38 z"
     id="path28" />
  <path
     class="a"
     d="m 33.38,28.87 c 0,0 -0.76,0.33 -1.54,-0.64 a 1.37,1.37 0 0 0 1.3,0.69 z"
     id="path30" />
  <path
     class="a"
     d="m 16.55,13.45 a 3.41,3.41 0 0 0 -1.12,-2.53 3.42,3.42 0 0 1 -4.83,4.83 3.42,3.42 0 0 0 6,-2.3 z"
     id="path32" />
  <path
     class="a"
     d="m 21.21,4.69 a 6.65,6.65 0 0 1 6.44,5 6.45,6.45 0 0 0 -12.88,0 6.65,6.65 0 0 1 6.44,-5 z"
     id="path34" />
  <path
     class="a"
     d="m 14.84,9.43 c 0,0 -0.23,0.67 0.59,1.48 A 1.57,1.57 0 0 1 14.79,9.53 Z"
     id="path36" />
  <path
     class="a"
     d="m 9,15.09 a 1.76,1.76 0 0 1 1.57,0.69 1.66,1.66 0 0 0 -1.43,-0.72 z"
     id="path38" />
  <path
     class="a"
     d="M 38,22 A 6.92,6.92 0 0 1 33.33,28.84 6.76,6.76 0 0 0 39,22 6.76,6.76 0 0 0 33.27,15.17 6.92,6.92 0 0 1 38,22 Z"
     id="path40" />
  <path
     class="a"
     d="m 29.09,16.7 a 2.94,2.94 0 0 1 -2.43,-4.59 2.84,2.84 0 0 0 3.63,4.33 2.92,2.92 0 0 1 -1.2,0.26 z"
     id="path42" />
  <path
     class="a"
     d="m 30.24,16.48 c 0,0 2.22,-1.42 3.37,-1.15 0.88,0.2 -0.08,-0.09 -0.08,-0.09 0,0 -0.89,-0.39 -3.29,1.24 z"
     id="path44" />
  <path
     class="a"
     d="m 27.6,9.47 c 0,0 0.43,0.9 -1,2.67 a 3.5,3.5 0 0 0 1,-2.58 z"
     id="path46" />
  <path
     class="a"
     d="M 4.5,21.9 A 6.92,6.92 0 0 1 9.17,15.07 6.76,6.76 0 0 0 3.44,21.9 6.76,6.76 0 0 0 9.17,28.74 6.92,6.92 0 0 1 4.5,21.9 Z"
     id="path48" />
  <path
     class="a"
     d="m 13.39,27.25 a 2.94,2.94 0 0 1 2.43,4.59 2.84,2.84 0 0 0 -3.63,-4.33 2.92,2.92 0 0 1 1.2,-0.26 z"
     id="path50" />
  <path
     class="a"
     d="m 12.24,27.47 c 0,0 -2.24,1.42 -3.37,1.15 -0.88,-0.2 0.08,0.09 0.08,0.09 0,0 0.89,0.39 3.29,-1.24 z"
     id="path52" />
  <path
     class="a"
     d="m 14.88,34.48 c 0,0 -0.43,-0.9 1,-2.67 a 3.5,3.5 0 0 0 -1,2.58 z"
     id="path54" />
  <path
     class="a"
     d="m 21.22,40.86 a 7,7 0 0 1 -6.71,-5.43 6.86,6.86 0 0 0 6.71,6.63 6.86,6.86 0 0 0 6.71,-6.63 7,7 0 0 1 -6.71,5.43 z"
     id="path56" />
  <path
     class="a"
     d="m 29.72,16.16 a 3,3 0 0 1 -3,-3 3,3 0 0 1 0.52,-1.69 2.88,2.88 0 0 0 -0.83,2 2.93,2.93 0 0 0 4.41,2.53 L 31,15.9 a 3,3 0 0 1 -1.28,0.26 z"
     id="path58" />
  <path
     class="a"
     d="m 26.39,30.87 a 3.27,3.27 0 0 0 1.16,2.5 3.28,3.28 0 0 1 4.62,-4.62 3.28,3.28 0 0 0 -5.78,2.12 z"
     id="path60" />
  <path
     class="a"
     d="M 27.91,35.63 A 3.08,3.08 0 0 0 27.49,33.3 c -0.7,-0.77 -0.13,-0.13 -0.13,-0.13 a 2.64,2.64 0 0 1 0.53,2.54 z"
     id="path62" />
  <path
     class="a"
     d="m 39.55,22.06 c 0,3.66 -2.48,6.66 -5.64,7 a 5.6,5.6 0 0 0 0.56,0 c 3.42,0 6.2,-3.14 6.2,-7 0,-3.86 -2.77,-7 -6.2,-7 a 5.54,5.54 0 0 0 -0.56,0 c 3.16,0.34 5.64,3.34 5.64,7 z"
     id="path64" />
  <path
     class="a"
     d="m 32,28.62 c 0,0 0.13,0.66 2,0.4 L 35,29 c 0,0 -2.38,0.42 -3,-0.38 z"
     id="path66" />
  <path
     class="a"
     d="m 30.72,16 a 5.92,5.92 0 0 1 3.62,-0.9 L 34.9,15.03 A 6.52,6.52 0 0 0 30.72,16 Z"
     id="path68" />
  <path
     class="a"
     d="M 21.29,3.09 A 7,7 0 0 1 28,8.51 6.86,6.86 0 0 0 21.29,1.88 6.86,6.86 0 0 0 14.58,8.51 7,7 0 0 1 21.29,3.09 Z"
     id="path70" />
  <path
     class="a"
     d="m 12.79,27.78 a 3,3 0 0 1 3,3 3,3 0 0 1 -0.52,1.69 2.88,2.88 0 0 0 0.83,-2 A 2.93,2.93 0 0 0 11.68,28 l -0.13,0.09 a 3,3 0 0 1 1.24,-0.31 z"
     id="path72" />
  <path
     class="a"
     d="M 16.12,13.08 A 3.27,3.27 0 0 0 15,10.58 3.28,3.28 0 0 1 10.38,15.2 3.28,3.28 0 0 0 16.16,13.08 Z"
     id="path74" />
  <path
     class="a"
     d="m 14.6,8.31 a 3.08,3.08 0 0 0 0.4,2.33 c 0.7,0.77 0.13,0.13 0.13,0.13 A 2.64,2.64 0 0 1 14.6,8.23 Z"
     id="path76" />
  <path
     class="a"
     d="m 3,21.88 c 0,-3.66 2.48,-6.65 5.64,-7 a 5.6,5.6 0 0 0 -0.56,0 c -3.42,0 -6.2,3.14 -6.2,7 0,3.86 2.78,7 6.2,7 a 5.54,5.54 0 0 0 0.56,0 C 5.44,28.54 3,25.54 3,21.88 Z"
     id="path78" />
  <path
     class="a"
     d="m 10.47,15.32 c 0,0 -0.13,-0.66 -2,-0.4 H 7.56 c 0,0 2.32,-0.4 2.91,0.4 z"
     id="path80" />
  <path
     class="a"
     d="m 11.79,27.91 a 5.92,5.92 0 0 1 -3.62,0.9 l -0.56,0.07 a 6.52,6.52 0 0 0 4.18,-0.97 z"
     id="path82" />
  <path
     class="a"
     d="M 27.15,11.55 A 4.52,4.52 0 0 0 27.92,8.18 V 7.55 a 4.59,4.59 0 0 1 -0.77,4 z"
     id="path84" />
  <path
     class="a"
     d="m 15.36,32.38 a 4.52,4.52 0 0 0 -0.77,3.37 v 0.63 a 4.59,4.59 0 0 1 0.77,-4 z"
     id="path86" />
  <path
     class="a"
     d="m 21.22,42.66 a 7.67,7.67 0 0 1 -7.35,-5.94 7.52,7.52 0 0 0 7.35,7.28 7.52,7.52 0 0 0 7.35,-7.27 7.67,7.67 0 0 1 -7.35,5.93 z"
     id="path88" />
  <path
     class="a"
     d="m 30.48,15.6 a 3.08,3.08 0 0 1 -3.09,-3.07 3,3 0 0 1 0.54,-1.73 3,3 0 0 0 -0.85,2.07 3,3 0 0 0 4.53,2.54 l 0.14,-0.09 a 3.09,3.09 0 0 1 -1.27,0.28 z"
     id="path90" />
  <path
     class="a"
     d="m 27.1,31.45 a 3.23,3.23 0 0 0 1.1,2.44 3.24,3.24 0 0 1 -0.74,-2.07 3.16,3.16 0 0 1 3.12,-3.2 3.06,3.06 0 0 1 2,0.76 3.08,3.08 0 0 0 -2.37,-1.13 3.16,3.16 0 0 0 -3.11,3.2 z"
     id="path92" />
  <path
     class="a"
     d="m 28.54,36.93 c 0,0 0.4,-2.24 -0.4,-3.12 -0.8,-0.88 0,0 0,0 0,0 0.77,0.58 0.32,3.27 z"
     id="path94" />
  <path
     class="a"
     d="m 41.29,22.07 c 0,4 -2.71,7.29 -6.17,7.64 a 6.14,6.14 0 0 0 0.62,0 c 3.75,0 6.79,-3.44 6.79,-7.67 0,-4.23 -3,-7.67 -6.79,-7.67 a 6.07,6.07 0 0 0 -0.62,0 c 3.46,0.41 6.17,3.69 6.17,7.7 z"
     id="path96" />
  <path
     class="a"
     d="m 32.51,29.29 c 0,0 0.69,0.68 2.74,0.4 h 1.3 c 0,0 -3.39,0.48 -4.04,-0.4 z"
     id="path98" />
  <path
     class="a"
     d="m 31.58,15.42 a 6.74,6.74 0 0 1 4,-0.93 l 0.62,-0.07 a 7,7 0 0 0 -4.62,1 z"
     id="path100" />
  <path
     class="a"
     d="M 27.78,11 A 5.53,5.53 0 0 0 28.56,6.88 V 6.19 c 0,0 0.73,2.92 -0.78,4.81 z"
     id="path102" />
  <path
     class="a"
     d="M 21.31,1.32 A 7.67,7.67 0 0 1 28.66,7.26 7.52,7.52 0 0 0 21.31,0 7.52,7.52 0 0 0 14,7.26 7.67,7.67 0 0 1 21.31,1.32 Z"
     id="path104" />
  <path
     class="a"
     d="m 12,28.38 a 3.08,3.08 0 0 1 3.09,3.07 3,3 0 0 1 -0.54,1.73 3,3 0 0 0 0.85,-2.07 3,3 0 0 0 -4.53,-2.54 l -0.14,0.09 A 3.09,3.09 0 0 1 12,28.38 Z"
     id="path106" />
  <path
     class="a"
     d="m 15.42,12.52 a 3.23,3.23 0 0 0 -1.1,-2.44 3.24,3.24 0 0 1 0.74,2.07 3.16,3.16 0 0 1 -3.12,3.2 3.06,3.06 0 0 1 -2,-0.76 3.08,3.08 0 0 0 2.37,1.13 3.16,3.16 0 0 0 3.11,-3.2 z"
     id="path108" />
  <path
     class="a"
     d="m 14,7 c 0,0 -0.4,2.24 0.4,3.12 0.8,0.88 0,0 0,0 0,0 -0.77,-0.58 -0.32,-3.27 z"
     id="path110" />
  <path
     class="a"
     d="m 1.23,21.91 c 0,-4 2.71,-7.29 6.17,-7.64 a 6.06,6.06 0 0 0 -0.62,0 C 3,14.24 0,17.67 0,21.91 c 0,4.24 3,7.67 6.79,7.67 a 6.14,6.14 0 0 0 0.62,0 C 3.95,29.2 1.23,25.91 1.23,21.91 Z"
     id="path112" />
  <path
     class="a"
     d="m 10,14.68 c 0,0 -0.69,-0.68 -2.74,-0.4 H 6 c 0,0 3.36,-0.47 4,0.4 z"
     id="path114" />
  <path
     class="a"
     d="m 10.94,28.56 a 6.74,6.74 0 0 1 -4,0.93 l -0.62,0.07 a 7,7 0 0 0 4.62,-1 z"
     id="path116" />
  <path
     class="a"
     d="M 14.74,33 A 5.53,5.53 0 0 0 14,37.11 v 0.69 c 0,0 -0.77,-2.94 0.74,-4.8 z"
     id="path118" />
  <path
     class="a"
     d="m 11.09,18.77 a 1.58,1.58 0 0 0 -0.19,1.1 3.84,3.84 0 0 0 0.25,0.91 3.07,3.07 0 0 0 0.44,0.71 l 2,2.5 a 2.17,2.17 0 0 1 0.26,0.39 0.92,0.92 0 0 1 0.09,0.31 0.55,0.55 0 0 1 0,0.21 0.83,0.83 0 0 1 -0.11,0.21 H 14 14.18 a 1.24,1.24 0 0 0 0.9,-0.61 1.9,1.9 0 0 0 0.27,-1.23 2.66,2.66 0 0 0 -0.17,-0.75 2.83,2.83 0 0 0 -0.44,-0.7 l -2,-2.52 a 2.31,2.31 0 0 1 -0.25,-0.37 c 0,0 -0.27,-0.5 -0.4,-0.56 a 0.79,0.79 0 0 0 -1,0.4 z"
     id="path120" />
  <polygon
     class="a"
     points="15.26,18.34 12.91,18.34 15.26,21.59 "
     id="polygon122" />
  <path
     class="a"
     d="M 9.77,18.34 H 8 v 7 h 2 V 18.63 A 1,1 0 0 1 9.77,18.34 Z"
     id="path124" />
  <polygon
     class="a"
     points="13.58,25.28 11.12,21.92 11.12,25.28 "
     id="polygon126" />
  <metadata
     id="metadata992">
    <rdf:RDF>
      <cc:Work
         rdf:about="">
        <dc:title>site_logo_istem</dc:title>
      </cc:Work>
    </rdf:RDF>
  </metadata>
</svg>
