<?xml version="1.0" encoding="UTF-8" standalone="no"?>
<svg
   version="1.1"
   x="0px"
   y="0px"
   width="45"
   height="8.6000004"
   viewBox="0 0 1331.4795 254.46047"
   enable-background="new 0 0 1335.219 430.063"
   xml:space="preserve"
   id="svg72"
   sodipodi:docname="toray_logo.svg"
   inkscape:version="1.2.1 (9c6d41e410, 2022-07-14)"
   xmlns:inkscape="http://www.inkscape.org/namespaces/inkscape"
   xmlns:sodipodi="http://sodipodi.sourceforge.net/DTD/sodipodi-0.dtd"
   xmlns="http://www.w3.org/2000/svg"
   xmlns:svg="http://www.w3.org/2000/svg"><defs
   id="defs76" /><sodipodi:namedview
   id="namedview74"
   pagecolor="#ffffff"
   bordercolor="#000000"
   borderopacity="0.25"
   inkscape:showpageshadow="2"
   inkscape:pageopacity="0.0"
   inkscape:pagecheckerboard="0"
   inkscape:deskcolor="#d1d1d1"
   showgrid="false"
   inkscape:zoom="6.3020833"
   inkscape:cx="96.079339"
   inkscape:cy="30.783471"
   inkscape:window-width="1920"
   inkscape:window-height="1017"
   inkscape:window-x="-8"
   inkscape:window-y="-8"
   inkscape:window-maximized="1"
   inkscape:current-layer="svg72" />
      <g
   id="g70"
   style="fill:#ffffff">
        <g
   id="g68"
   style="fill:#ffffff">
          
          <g
   id="g66"
   style="fill:#ffffff">
            <g
   id="g58"
   style="fill:#ffffff">
              <g
   id="g56"
   style="fill:#ffffff">
                <polygon
   fill="#004098"
   points="171.372,0 104.517,91.515 164.684,91.515 230.37,0 "
   id="polygon46"
   style="fill:#ffffff" />
                <polygon
   fill="#004098"
   points="1166.89,0 1100.025,91.515 1160.213,91.515 1225.883,0 "
   id="polygon48"
   style="fill:#ffffff" />
                <path
   fill="#004098"
   d="m 820.718,221.711 10.855,-31.806 61.136,-0.015 10.856,31.821 h 47.613 L 888.77,43.951 h -54.294 l -61.609,177.76 z m 41.409,-121.515 18.093,52.987 h -36.141 z"
   id="path50"
   style="fill:#ffffff" />
                <path
   fill="#004098"
   d="M 661.897,221.691 V 161.74 l 40.857,59.951 h 55.811 l -48.92,-71.243 c 19.404,-9.485 30.942,-29.521 31.075,-49.256 0.241,-38.094 -30.436,-57.251 -52.306,-57.251 l -75.033,0.005 v 177.745 z m 0,-136.932 c 17.436,-0.173 33.37,1.644 33.37,17.944 0,16.315 -13.141,20.287 -33.37,20.09 z"
   id="path52"
   style="fill:#ffffff" />
                <polygon
   fill="#004098"
   points="217.719,43.946 217.719,91.525 270.78,91.515 270.78,221.691 323.849,221.691 323.849,91.525 373.983,91.525 373.983,43.941 "
   id="polygon54"
   style="fill:#ffffff" />
              </g>
            </g>
            <path
   fill="#004098"
   d="m 484.514,38.424 c -66.608,0 -99.164,42.263 -99.164,94.407 0,52.163 35.635,94.427 99.164,94.427 63.514,0 99.145,-42.264 99.145,-94.427 -10e-4,-52.144 -32.553,-94.407 -99.145,-94.407 z m -0.011,146.354 c -26.037,0 -47.75,-23.254 -47.75,-51.947 0,-28.682 20.451,-51.942 47.75,-51.942 27.307,0 47.761,23.26 47.761,51.942 0,28.692 -21.722,51.947 -47.761,51.947 z"
   id="path60"
   style="fill:#ffffff" />
            <path
   fill="#004098"
   d="m 484.514,38.424 c -66.608,0 -99.164,42.263 -99.164,94.407 0,52.163 35.635,94.427 99.164,94.427 63.514,0 99.145,-42.264 99.145,-94.427 -10e-4,-52.144 -32.553,-94.407 -99.145,-94.407 z m -0.011,146.354 c -26.037,0 -47.75,-23.254 -47.75,-51.947 0,-28.682 20.451,-51.942 47.75,-51.942 27.307,0 47.761,23.26 47.761,51.942 0,28.692 -21.722,51.947 -47.761,51.947 z"
   id="path62"
   style="fill:#ffffff" />
            <polygon
   fill="#004098"
   points="933.862,43.946 997.619,136.882 997.619,221.701 1045.171,221.701 1045.171,136.882 1108.895,43.946 1052.009,43.946 1021.396,90.873 990.734,43.946 "
   id="polygon64"
   style="fill:#ffffff" />
          </g>
        </g>
      </g>
    </svg>
